<svg width="17" height="14" viewBox="0 0 17 14" fill="none" xmlns="http://www.w3.org/2000/svg">
<path d="M5.34883 6.98601C5.56468 6.98601 5.78052 6.95601 5.98656 6.89601C6.40845 6.00601 7.02656 5.23601 7.79184 4.65601C7.80166 4.59601 7.80166 4.53601 7.80166 4.47601C7.80166 3.09601 6.70279 1.97601 5.34883 1.97601C3.99486 1.97601 2.896 3.09601 2.896 4.47601C2.896 5.86601 3.99486 6.98601 5.34883 6.98601Z" fill="#393B44"/>
<path d="M5.69213 7.65601C4.74435 7.74401 3.87115 7.48101 3.20005 6.97601C1.57137 7.82601 0.452881 9.64601 0.452881 11.746C0.452881 14.226 7.51703 14.596 9.64609 12.856C6.24941 12.427 4.59718 11.004 5.69213 7.65601Z" fill="#393B44"/>
<path d="M11.2355 5.002C12.5908 5.002 13.6894 3.88226 13.6894 2.501C13.6894 1.11974 12.5908 0 11.2355 0C9.88035 0 8.78174 1.11974 8.78174 2.501C8.78174 3.88226 9.88035 5.002 11.2355 5.002Z" fill="#393B44"/>
<path d="M13.3831 5C12.1361 5.934 10.3377 5.936 9.08873 5C7.45613 5.85 6.3396 7.664 6.3396 9.765C6.3396 12.691 16.1313 12.691 16.1313 9.765C16.1313 7.664 15.0148 5.85 13.3831 5Z" fill="#393B44"/>
</svg>
