<svg width="10" height="9" viewBox="0 0 10 9" fill="none" xmlns="http://www.w3.org/2000/svg">
<path d="M8.52144 0.909195C7.3323 -0.303115 5.40427 -0.303115 4.21512 0.909497C3.2062 1.93752 3.05641 3.50606 3.75926 4.6988L0.914481 7.59798C0.625837 7.89218 0.625837 8.36855 0.914481 8.66244C1.05866 8.80939 1.24774 8.88286 1.43682 8.88286C1.6259 8.88286 1.81468 8.80939 1.95915 8.66244L2.21441 8.40228L2.80056 9L3.58407 8.20173L2.99762 7.60431L3.2842 7.31222L4.15751 8.20173L4.94072 7.40316L4.0677 6.51365L4.80364 5.76356C5.97358 6.47962 7.51281 6.32695 8.52144 5.29863C9.71058 4.08632 9.71058 2.1209 8.52144 0.909195ZM7.34885 4.10348C6.8076 4.65513 5.92926 4.65513 5.38772 4.10348C4.84589 3.55153 4.84589 2.656 5.38772 2.10434C5.92926 1.55239 6.8076 1.55239 7.34885 2.10434C7.89068 2.656 7.89068 3.55123 7.34885 4.10348Z" fill="#696E84"/>
</svg>
