<svg width="202" height="39" viewBox="0 0 202 39" fill="none" xmlns="http://www.w3.org/2000/svg">
<path d="M68.3105 10.752L66.3785 13.888C65.3891 12.992 64.3438 12.544 63.2425 12.544C62.4211 12.544 61.8145 12.7587 61.4225 13.188C61.1051 13.5053 60.9465 13.8973 60.9465 14.364C60.9465 14.7933 61.0865 15.1387 61.3665 15.4C61.4598 15.4747 61.5531 15.5493 61.6465 15.624C61.7398 15.68 61.8705 15.7453 62.0385 15.82C62.2065 15.8947 62.3465 15.96 62.4585 16.016C62.5705 16.0533 62.7665 16.128 63.0465 16.24C63.3265 16.3333 63.5505 16.408 63.7185 16.464L65.1185 16.996C66.2945 17.444 67.1438 17.92 67.6665 18.424C68.5811 19.2827 69.0385 20.44 69.0385 21.896C69.0385 23.8373 68.4878 25.3773 67.3865 26.516C66.1731 27.7853 64.4091 28.42 62.0945 28.42C60.6758 28.42 59.4438 28.1587 58.3985 27.636C57.4651 27.1693 56.5505 26.488 55.6545 25.592L57.8945 22.512C58.5291 23.1467 59.1078 23.6227 59.6305 23.94C60.3585 24.388 61.1425 24.612 61.9825 24.612C62.7851 24.612 63.4385 24.3973 63.9425 23.968C64.3905 23.5947 64.6145 23.0907 64.6145 22.456C64.6145 21.9333 64.3998 21.4853 63.9705 21.112C63.6345 20.832 62.9065 20.4867 61.7865 20.076L60.2465 19.544C59.0331 19.1147 58.1651 18.62 57.6425 18.06C56.8958 17.276 56.5225 16.1933 56.5225 14.812C56.5225 13.1133 57.0638 11.7133 58.1465 10.612C59.2665 9.47333 60.8065 8.904 62.7665 8.904C64.8011 8.904 66.6491 9.52 68.3105 10.752ZM77.265 28H72.953L75.949 9.324H79.533L84.181 20.496L88.829 9.324H92.413L95.409 28H91.097L89.613 16.856L84.937 28H83.425L78.749 16.856L77.265 28ZM112.678 28L111.278 24.472H104.222L102.794 28H98.3138L105.846 9.324H109.794L117.158 28H112.678ZM105.482 21.168H110.102L107.806 14.896L105.482 21.168ZM120.931 9.324H127.483C129.499 9.324 131.086 9.86533 132.243 10.948C133.326 11.9933 133.867 13.384 133.867 15.12C133.867 16.7067 133.382 17.976 132.411 18.928C131.664 19.6373 130.796 20.1133 129.807 20.356L135.547 28H130.283L125.243 20.636V28H120.931V9.324ZM125.243 12.684V17.808H126.223C127.399 17.808 128.258 17.5373 128.799 16.996C129.266 16.5293 129.499 15.9227 129.499 15.176C129.499 14.3547 129.21 13.72 128.631 13.272C128.108 12.88 127.315 12.684 126.251 12.684H125.243ZM149.629 12.964H145.569V28H141.257V12.964H137.197V9.324H149.629V12.964ZM169.017 28.868L167.197 26.964C165.872 27.9347 164.127 28.42 161.961 28.42C159.18 28.42 156.893 27.5333 155.101 25.76C153.141 23.8187 152.161 21.448 152.161 18.648C152.161 17.304 152.413 16.0253 152.917 14.812C153.44 13.5987 154.131 12.5627 154.989 11.704C156.856 9.83733 159.292 8.904 162.297 8.904C165.191 8.904 167.599 9.8 169.521 11.592C171.463 13.4027 172.433 15.7733 172.433 18.704C172.433 19.936 172.172 21.14 171.649 22.316C171.22 23.3053 170.613 24.1453 169.829 24.836L173.077 28.364L169.017 28.868ZM165.237 20.216L166.917 22.008C167.645 21.0187 168.009 19.8987 168.009 18.648C168.009 16.968 167.477 15.596 166.413 14.532C165.349 13.4307 163.977 12.88 162.297 12.88C160.636 12.88 159.273 13.4307 158.209 14.532C157.127 15.652 156.585 17.052 156.585 18.732C156.585 20.3373 157.108 21.6907 158.153 22.792C159.217 23.8933 160.561 24.444 162.185 24.444C162.988 24.444 163.735 24.2853 164.425 23.968L161.065 20.664L165.237 20.216Z" fill="#393B44"/>
<circle cx="33.9901" cy="12.5256" r="7.18606" transform="rotate(-51.2755 33.9901 12.5256)" fill="#C0C6DE" stroke="#F1F3F8" stroke-width="3"/>
<circle cx="27.2682" cy="16.2804" r="10.0814" transform="rotate(-51.2755 27.2682 16.2804)" fill="#8D93AB" stroke="#F1F3F8" stroke-width="3"/>
<circle cx="19.5478" cy="20.2191" r="11.8602" transform="rotate(-51.2755 19.5478 20.2191)" fill="#696E84" stroke="#F1F3F8" stroke-width="3"/>
</svg>
