<svg width="9" height="9" viewBox="0 0 9 9" fill="none" xmlns="http://www.w3.org/2000/svg">
<path d="M7.9739 0.909195C6.76189 -0.303115 4.79677 -0.303115 3.58476 0.909497C2.55644 1.93752 2.40377 3.50606 3.12014 4.6988L0.220646 7.59798C-0.0735487 7.89218 -0.0735487 8.36855 0.220646 8.66244C0.367593 8.80939 0.56031 8.88286 0.753027 8.88286C0.945744 8.88286 1.13816 8.80939 1.28541 8.66244L1.54558 8.40228L2.143 9L2.94157 8.20173L2.34385 7.60431L2.63593 7.31222L3.52605 8.20173L4.32432 7.40316L3.4345 6.51365L4.1846 5.76356C5.37703 6.47962 6.94587 6.32695 7.9739 5.29863C9.18591 4.08632 9.18591 2.1209 7.9739 0.909195ZM6.77875 4.10348C6.2271 4.65513 5.33186 4.65513 4.77991 4.10348C4.22766 3.55153 4.22766 2.656 4.77991 2.10434C5.33186 1.55239 6.2271 1.55239 6.77875 2.10434C7.331 2.656 7.331 3.55123 6.77875 4.10348Z" fill="#F54D4D"/>
</svg>
