<svg width="360" height="229" viewBox="0 0 360 229" fill="none" xmlns="http://www.w3.org/2000/svg">
<g clip-path="url(#clip0_224_542)">
<path d="M360.063 63.321C353.643 75.4316 326.14 86.913 301.689 76.564C263.675 60.4271 233.434 14.4383 175.972 18.213C93.6504 23.6235 104.539 106.51 66.9651 133.625C19.6994 167.724 2.48607 197.387 0.220337 228.78C43.1434 228.78 360.032 228.78 360.032 228.78L360.063 63.321Z" fill="#F1F3F8"/>
<path d="M110.171 99.0865L92.4231 98.7091L92.3916 218.966H127.353V159.985C127.353 153.034 117.535 103.144 110.171 99.0865Z" fill="#393B44"/>
<path d="M124.269 218.903H88.1119V124.723C88.1119 123.339 89.2448 122.207 90.6294 122.207H124.238V218.903H124.269Z" fill="#8D93AB"/>
<path d="M108.692 98.6776H88.7414C87.6085 98.6776 86.6644 99.5898 86.6644 100.754V107.957C86.6644 109.09 87.577 110.033 88.7414 110.033H113.129C111.619 104.12 110.077 99.81 108.692 98.6776Z" fill="#8D93AB"/>
<path d="M88.2693 113.651C87.4511 113.651 86.7903 114.311 86.7903 115.129V116.293C86.7903 117.111 87.4511 117.771 88.2693 117.771H114.892C114.608 116.356 114.294 114.94 113.979 113.619L88.2693 113.651Z" fill="#8D93AB"/>
<path d="M167.444 218.903H89.6539V228.717H167.444V218.903Z" fill="#393B44"/>
<path d="M123.671 218.903H86.7903V228.685H123.671V218.903Z" fill="#8D93AB"/>
<path d="M142.238 99.0865L108.661 98.6776C108.661 98.6776 121.06 153.034 121.06 160.017V218.966H164.36V159.985C164.392 152.751 155.329 99.5898 142.238 99.0865Z" fill="#393B44"/>
<path d="M150.955 147.718L151.867 155.802C151.993 156.808 152.811 157.595 153.85 157.626L159.199 157.784C160.458 157.815 161.465 156.714 161.276 155.487L160.269 147.529C160.143 146.554 159.357 145.799 158.35 145.736L153.063 145.453C151.836 145.39 150.829 146.459 150.955 147.718Z" fill="#8D93AB"/>
<path d="M151.238 149.951C151.741 149.636 160.112 150.234 160.71 150.423L160.332 147.529C160.206 146.554 159.42 145.799 158.413 145.736L153.126 145.453C151.867 145.39 150.829 146.459 150.986 147.749L151.238 149.951Z" fill="#8D93AB"/>
<path d="M126.283 158.822C124.71 158.822 123.42 157.658 123.262 156.116C122.444 148.63 120.587 135.167 118.07 121.766L117.787 120.194H140.633C143.591 120.194 146.108 122.301 146.706 125.227C149.318 138.438 150.451 153.191 150.734 157.406L150.829 158.79H126.283V158.822Z" fill="#D1EAF2"/>
<path d="M124.553 155.959C123.608 147.246 121.657 133.814 119.329 121.515H140.57C142.899 121.515 144.913 123.182 145.353 125.478C147.587 136.739 148.815 149.636 149.35 157.5H126.252C125.402 157.5 124.647 156.871 124.553 155.959Z" fill="#8D93AB"/>
<path d="M123.766 149.29C124.08 151.713 124.364 153.977 124.552 155.959C124.647 156.84 125.402 157.5 126.283 157.5H149.381C149.224 155.141 149.004 152.342 148.72 149.29H123.766Z" fill="#B3AAC9"/>
<path d="M136.101 126.044C138.43 126.044 140.444 127.712 140.885 130.008C142.741 139.319 143.119 141.521 143.78 149.29L149.413 157.5C148.909 149.636 147.65 136.739 145.416 125.478C144.976 123.182 142.962 121.515 140.633 121.515H119.36C119.643 122.993 119.927 124.503 120.178 126.044H136.101Z" fill="#8D93AB"/>
<path d="M138.524 131.832H122.727C122.538 131.832 122.413 131.675 122.413 131.518C122.413 131.329 122.57 131.203 122.727 131.203H138.493C138.682 131.203 138.808 131.36 138.808 131.518C138.839 131.675 138.713 131.832 138.524 131.832Z" fill="#D1EAF2"/>
<path d="M138.084 129.851H122.318C122.129 129.851 122.004 129.693 122.004 129.536C122.004 129.347 122.161 129.221 122.318 129.221H138.084C138.273 129.221 138.399 129.379 138.399 129.536C138.399 129.693 138.273 129.851 138.084 129.851Z" fill="#D1EAF2"/>
<path d="M150.105 165.585H126.881C126.346 165.585 125.906 165.144 125.906 164.609C125.906 164.075 126.346 163.634 126.881 163.634H150.105C150.64 163.634 151.08 164.075 151.08 164.609C151.08 165.113 150.64 165.585 150.105 165.585Z" fill="#8D93AB"/>
<path d="M126.881 164.893H150.105C150.388 164.893 150.671 165.018 150.86 165.239C151.018 165.05 151.08 164.83 151.08 164.609C151.08 164.075 150.64 163.634 150.105 163.634H126.881C126.346 163.634 125.906 164.075 125.906 164.609C125.906 164.83 126 165.081 126.126 165.239C126.346 165.018 126.598 164.893 126.881 164.893Z" fill="#8D93AB"/>
<path d="M159.86 137.431L149.822 137.809C149.601 137.809 149.381 137.369 149.35 136.865C149.35 136.33 149.507 135.89 149.727 135.859L159.766 135.481C159.986 135.481 160.206 135.922 160.238 136.425C160.269 136.96 160.112 137.431 159.86 137.431Z" fill="#322059"/>
<path d="M150.546 144.32C148.657 141.993 152.087 139.445 150.168 137.117C153.157 136.991 156.178 136.897 159.168 136.771C160.993 139.099 157.5 141.647 159.357 143.974C156.43 144.1 153.504 144.226 150.546 144.32Z" fill="#D1EAF2"/>
<path d="M149.822 137.148L159.86 136.771C159.986 136.771 160.112 136.897 160.206 137.117C160.269 136.928 160.301 136.708 160.269 136.488C160.269 135.953 160.049 135.513 159.797 135.544L149.759 135.922C149.539 135.922 149.35 136.393 149.381 136.928C149.381 137.148 149.444 137.369 149.507 137.557C149.57 137.306 149.696 137.148 149.822 137.148Z" fill="#8D93AB"/>
<path d="M158.57 137.557L151.584 137.809C151.49 137.809 151.395 137.746 151.395 137.62C151.395 137.526 151.458 137.431 151.584 137.431L158.57 137.18C158.664 137.18 158.759 137.243 158.759 137.369C158.759 137.463 158.664 137.557 158.57 137.557Z" fill="#D6E0F0"/>
<path d="M158.444 143.345L151.458 143.597C151.364 143.597 151.269 143.534 151.269 143.408C151.269 143.314 151.332 143.219 151.458 143.219L158.444 142.968C158.538 142.968 158.633 143.031 158.633 143.156C158.601 143.251 158.538 143.345 158.444 143.345Z" fill="#D6E0F0"/>
<path d="M157.248 138.627L151.458 138.847C151.364 138.847 151.269 138.784 151.269 138.658C151.269 138.564 151.332 138.47 151.458 138.47L157.248 138.249C157.343 138.249 157.437 138.312 157.437 138.438C157.437 138.532 157.374 138.627 157.248 138.627Z" fill="#D6E0F0"/>
<path d="M158.255 139.256L152.969 139.476C152.874 139.476 152.78 139.413 152.78 139.287C152.78 139.193 152.843 139.099 152.969 139.099L158.255 138.878C158.35 138.878 158.444 138.941 158.444 139.067C158.444 139.162 158.35 139.256 158.255 139.256Z" fill="#D6E0F0"/>
<path d="M135.913 87.4478H90.7239C88.647 87.4478 86.9791 85.7806 86.9791 83.7045V52.9091C86.9791 50.833 88.647 49.1658 90.7239 49.1658H135.913C137.99 49.1658 139.657 50.833 139.657 52.9091V83.6731C139.657 85.7492 137.99 87.4478 135.913 87.4478Z" fill="#393B44"/>
<path d="M141.105 87.4478H94.2484C92.14 87.4478 90.4407 85.7492 90.4407 83.6416V52.972C90.4407 50.8644 92.14 49.1658 94.2484 49.1658H141.105C143.213 49.1658 144.913 50.8644 144.913 52.972V83.6102C144.913 85.7177 143.213 87.4478 141.105 87.4478Z" fill="#D6E0F0"/>
<path opacity="0.47" d="M141.105 49.1343H94.2484C92.14 49.1343 90.4407 50.833 90.4407 52.9405V55.6143H102.997C120.556 55.6143 134.811 69.8324 134.811 87.4164H141.136C143.245 87.4164 144.944 85.7177 144.944 83.6102V52.972C144.913 50.8644 143.213 49.1343 141.105 49.1343Z" fill="white"/>
<path d="M103.374 87.4164H98.528V98.6776H103.374V87.4164Z" fill="#393B44"/>
<path d="M103.374 87.4164H98.528V89.0835H103.374V87.4164Z" fill="#393B44"/>
<path d="M135.818 87.4164H130.972V99.0236H135.818V87.4164Z" fill="#393B44"/>
<path d="M135.818 87.4164H130.972V89.0835H135.818V87.4164Z" fill="#393B44"/>
<path opacity="0.63" d="M334.983 118.18H290.927V123.025H335.014C336.367 123.025 337.437 121.924 337.437 120.602C337.437 119.281 336.336 118.18 334.983 118.18Z" fill="#62BDF3"/>
<path opacity="0.63" d="M337.437 101.792H310.909C309.556 101.792 308.486 102.893 308.486 104.214C308.486 105.535 309.587 106.636 310.909 106.636H337.437C338.79 106.636 339.86 105.535 339.86 104.214C339.86 102.861 338.79 101.792 337.437 101.792Z" fill="#62BDF3"/>
<path d="M325.888 100.125C325.888 100.125 326.895 102.043 328.626 102.83C330.325 103.585 332.497 103.239 332.874 105.032C333.283 106.856 322.269 105.283 322.269 105.283C322.269 105.283 322.804 100.785 322.804 100.03C322.836 99.2753 322.553 96.5701 322.553 96.5701L325.039 96.4128L325.888 100.125Z" fill="#EFAC7F"/>
<path d="M310.878 99.9988C310.878 99.9988 310.878 100.125 310.878 100.313C310.878 100.911 310.972 102.169 311.727 103.144C312.734 104.403 312.734 105.975 311.696 106.259C310.626 106.51 308.109 106.164 308.109 106.164C308.109 106.164 307.542 104.969 307.92 101.729C308.297 98.5203 308.549 94.9658 308.549 94.9658L311.413 94.4311L310.878 99.9988Z" fill="#EFAC7F"/>
<path d="M325.07 57.2185C325.227 59.3576 326.455 75.5574 326.392 78.7659C326.36 81.6913 326.392 94.9029 326.423 98.9293C326.423 99.7471 322.081 99.6842 322.049 99.0236C321.514 94.2738 317.675 58.0364 317.266 58.1622C315.787 58.5082 312.357 96.6644 312.42 99.4011C312.42 100.093 307.762 100.376 307.731 99.6213C307.605 93.1099 304.364 72.286 307.102 55.6772C307.574 52.8462 309.336 44.9822 309.934 44.9822L322.741 43.4723C323.276 43.5037 325.039 57.0613 325.07 57.2185Z" fill="#8D93AB"/>
<path d="M311.413 101.351C311.413 101.351 312.483 103.113 312.734 103.868C312.986 104.591 312.923 106.416 312.734 106.636C311.004 108.303 307.731 106.793 307.731 106.793C307.731 106.793 307.511 105.567 307.385 104.088C307.259 102.61 307.353 101.194 307.731 101.194C308.109 101.194 308.203 101.981 309.084 101.76C309.997 101.509 310.532 101.131 311.413 101.351Z" fill="#D1EAF2"/>
<path d="M322.553 102.106C322.553 102.106 322.458 102.83 322.206 104.025C321.955 105.252 322.206 106.353 322.206 106.353C322.206 106.353 332.434 106.196 332.811 105.755C333.22 105.315 332.937 103.931 332.811 103.805C332.685 103.679 331.395 103.333 330.703 102.893C330.011 102.452 327.65 100.722 326.895 100.848C326.14 100.974 325.825 101.697 324.346 101.886C322.93 102.106 322.899 101.76 322.553 102.106Z" fill="#D1EAF2"/>
<path d="M322.143 104.749C325.825 105.378 329.853 104.874 332.843 103.868C327.336 105.283 322.836 104.843 323.15 104.843C323.119 104.843 322.049 104.717 322.143 104.749Z" fill="#9CB9BD"/>
<path d="M322.427 15.5078C322.427 15.5078 325.385 15.2876 324.755 12.2993C324.094 9.27953 322.489 9.31099 322.804 7.64382C323.15 5.97665 324.409 6.73159 323.245 2.67376C322.08 -1.38407 311.381 -0.31456 310.815 3.17706C310.217 6.66868 308.266 5.85082 307.133 6.85742C305.119 8.65041 306.976 16.7975 310.028 15.5078C313.08 14.1867 313.049 13.2115 313.458 15.6966C313.867 18.1816 317.36 16.9548 319.059 17.3323C320.79 17.7098 322.615 17.1121 322.427 15.5078Z" fill="#393B44"/>
<path d="M337.563 49.7949C337.689 49.7006 339.199 50.9588 339.451 50.9273C339.703 50.8959 339.64 50.6757 339.577 50.487C339.577 50.487 337.689 48.8198 336.745 48.5681C335.801 48.3165 334.039 49.1029 333.724 48.6625C333.441 48.285 326.423 22.0821 326.423 22.0821L322.301 25.0705C322.301 25.0705 325.542 35.8599 325.951 37.2125C326.581 39.3515 330.923 48.5681 331.018 49.4804C331.143 50.3926 331.269 50.7386 332.56 51.3363C333.85 51.9339 335.423 52.3114 335.706 51.7767C335.958 51.2419 334.479 51.3048 334.542 51.0217C334.573 50.7386 335.895 50.424 336.462 50.833C337.059 51.2734 338.444 52.9091 338.822 52.4687C339.199 52.0283 337.059 50.4555 337.154 50.3926C337.248 50.3297 338.979 51.9339 339.262 51.9025C339.545 51.871 339.608 51.4935 339.262 51.2104C338.948 50.8959 337.437 49.8578 337.563 49.7949Z" fill="#EFAC7F"/>
<path opacity="0.65" d="M325.164 26.2972C325.039 25.5738 325.133 24.3784 324.881 23.2146L322.301 25.0705C322.301 25.0705 325.542 35.8599 325.951 37.2125C326.581 39.3515 330.923 48.5681 331.018 49.4804C331.049 49.6376 331.049 49.7635 331.08 49.8893C331.08 49.8893 331.647 48.7883 330.923 46.5864C330.451 45.2023 327.65 38.0933 326.171 32.5885C325.322 29.1912 325.164 26.2972 325.164 26.2972Z" fill="#D19369"/>
<path d="M320.885 16.1369C320.885 16.1369 323.276 16.6088 325.039 18.213C326.801 19.8173 327.651 25.1334 327.651 25.1334C327.651 25.1334 327.934 25.9198 323.182 26.6433C318.462 27.3668 320.885 16.1369 320.885 16.1369Z" fill="#62BDF3"/>
<path d="M320.916 16.137C325.668 18.6849 325.196 23.9695 325.448 26.2343C324.881 26.3602 324.126 26.5174 323.213 26.6433C318.462 27.3668 320.57 15.9482 320.916 16.137Z" fill="#62BDF3"/>
<path d="M323.748 19.5342C323.748 19.5342 324.535 24.9132 324.661 27.7128C324.692 28.4363 323.654 30.1663 323.559 32.0222C323.276 37.181 323.591 44.699 323.119 45.4225C321.797 47.4986 311.727 46.9324 309.524 45.9573C307.29 44.9821 309.682 41.176 309.367 36.3003C308.895 28.9081 307.636 19.66 308.549 18.1816C310.122 15.728 313.93 15.7595 313.93 15.7595L320.853 16.1369C320.885 16.1055 323.402 17.0177 323.748 19.5342Z" fill="#62BDF3"/>
<path d="M313.206 18.6849C313.112 17.3952 312.011 16.3886 310.72 16.4201C310.311 16.6088 309.902 16.829 309.525 17.1121C309.462 17.2065 309.399 17.3323 309.336 17.4266C308.864 18.276 308.486 19.1567 308.234 20.069C308.14 23.3404 308.927 29.9147 309.336 35.5768C309.808 33.5951 311.035 28.9396 312.073 27.7757C312.892 26.832 313.364 20.3521 313.206 18.6849Z" fill="#62BDF3"/>
<path d="M319.311 10.8209C319.311 10.8209 319.28 14.3754 319.532 15.1618C319.783 15.9482 320.916 16.137 320.916 16.137C320.916 16.137 322.206 19.6915 318.965 20.9812C315.724 22.2709 313.773 15.7595 313.773 15.7595C313.773 15.7595 314.685 15.7595 314.874 15.6966C315.692 15.4135 315.661 8.90206 315.661 8.90206L319.311 10.8209Z" fill="#EFAC7F"/>
<path opacity="0.65" d="M315.661 8.90206C315.661 8.90206 315.661 9.3739 315.661 10.0659C316.542 12.9599 318.241 14.5642 319.469 14.8473C319.28 13.6834 319.311 10.8209 319.311 10.8209L315.661 8.90206Z" fill="#D19369"/>
<path d="M309.619 26.3602L303.892 24.8817C303.892 24.8817 300.902 34.6646 300.965 36.0801C300.997 36.835 300.902 50.3611 300.682 50.7071C300.399 51.1475 298.574 50.5499 297.661 50.8959C296.748 51.2419 295.049 53.0978 295.049 53.0978C294.986 53.2865 294.986 53.5067 295.206 53.5382C295.427 53.5382 296.843 52.1541 297 52.217C297.126 52.3114 295.741 53.4753 295.427 53.7898C295.112 54.1044 295.206 54.4819 295.49 54.4819C295.773 54.4819 297.346 52.6889 297.472 52.7832C297.567 52.8462 295.584 54.6391 296.025 55.0166C296.465 55.3941 297.692 53.6326 298.227 53.1607C298.762 52.6889 300.084 52.8776 300.178 53.1607C300.241 53.4438 298.762 53.5382 299.077 54.0415C299.392 54.5448 300.934 54.01 302.161 53.2865C303.388 52.5945 303.483 52.1856 303.514 51.2734C303.546 50.3611 305.56 40.8929 306 38.6909C306.252 36.9294 309.619 26.3602 309.619 26.3602Z" fill="#EFAC7F"/>
<path d="M310.217 16.4515C311.475 16.2313 312.42 17.7727 312.325 19.0624C312.199 21.5159 311.192 25.3221 310.846 26.8006C310.311 29.0654 302.759 26.0456 303.294 24.1268C303.86 22.1765 307.951 16.7975 310.217 16.4515Z" fill="#62BDF3"/>
<path d="M315.126 7.07761C315.032 6.41703 315.126 5.78791 315.346 5.19025C315.661 4.4353 316.29 3.42871 317.297 2.98833C319.122 2.23338 320.79 2.73668 321.483 5.06442C322.175 7.42363 321.357 11.2298 320.287 12.4251C319.311 13.5576 315.913 12.142 315.126 7.07761Z" fill="#EFAC7F"/>
<path d="M315.629 7.17198C315.629 7.17198 314.623 5.725 314.056 6.57431C313.49 7.45508 314.056 9.49973 315.189 9.56264C316.322 9.65701 315.629 7.17198 315.629 7.17198Z" fill="#EFAC7F"/>
<path d="M318.839 29.6316C321.986 29.6316 324.535 28.3419 324.535 26.7691C324.535 25.1963 321.986 23.9066 318.839 23.9066C315.692 23.9066 313.143 25.1963 313.143 26.7691C313.143 28.3419 315.692 29.6316 318.839 29.6316Z" fill="#D1EAF2"/>
<path d="M275.601 46.7437C275.601 46.7437 273.178 43.1891 272.297 42.7488C271.416 42.3084 274.437 40.3896 274.437 40.3896L278.339 45.5484L275.601 46.7437Z" fill="#EFAC7F"/>
<path d="M290.077 115.758C290.077 115.758 290.297 117.237 288.692 118.023C287.087 118.778 285.671 119.564 285.671 120.445C285.671 121.326 295.584 120.98 295.584 120.445C295.584 119.91 293.727 115.192 293.727 115.192L290.077 115.758Z" fill="#EFAC7F"/>
<path d="M301.5 115.978V119.124C301.5 119.124 305.15 121.609 308.518 121.609C308.518 121.609 311.224 121.703 311.224 120.98C311.224 120.288 309.336 118.967 307.07 117.866C304.804 116.733 304.899 114.185 304.899 114.185L301.5 114.752V115.978Z" fill="#EFAC7F"/>
<path d="M288.535 17.0177L289.448 15.4135L291.902 15.0045L292.783 16.3571L288.535 17.0177Z" fill="#8D93AB"/>
<path d="M288.157 34.6331C288.157 34.6331 286.615 34.5702 285.734 36.7092C284.853 38.8482 283.437 47.1841 281.832 47.7188C280.227 48.2536 277.49 43.8183 277.49 43.8183L274.752 45.6742C274.752 45.6742 279.063 57.0298 283.091 56.5894C287.119 56.149 288.346 43.2835 289.102 40.4839C289.794 37.7158 288.157 34.6331 288.157 34.6331Z" fill="#3B77BE"/>
<path d="M302.853 69.5493C301.783 64.1389 284.318 65.9004 284.57 70.2099C284.57 70.2099 285.105 80.7791 286.206 92.4808C287.308 104.151 289.511 116.293 289.511 116.293H294.325C294.325 116.293 291.65 78.7659 292.972 77.4762C293.35 77.0988 293.759 76.9729 294.137 76.9415C295.112 76.8786 295.993 77.6335 296.119 78.6401L301.185 116.765L305.591 116.324C305.623 116.324 303.923 74.9598 302.853 69.5493Z" fill="#D6E0F0"/>
<path d="M284.696 72.4747C286.647 73.0724 297.409 74.9598 303.325 73.5442C303.168 71.6883 303.011 70.3043 302.853 69.5808C301.783 64.1704 284.318 65.9319 284.57 70.2414C284.57 70.2414 284.602 70.9334 284.696 72.4747Z" fill="#D6E0F0"/>
<path d="M291.997 99.7786C292.437 106.888 292.972 112.267 293.507 116.324H294.388C294.388 116.324 291.713 78.7974 293.035 77.5077C293.004 77.4762 290.643 78.0739 291.997 99.7786Z" fill="#D6E0F0"/>
<path d="M291.619 33.8782C291.619 33.8782 288.598 34.6331 288.157 34.6331C287.717 34.6331 281.549 63.1952 282.147 66.0577C282.745 68.9202 284.067 71.2479 284.067 71.2479C284.067 71.2479 298.951 74.0475 304.364 70.7446C304.364 70.7446 303.703 56.4636 303.703 51.4935C303.703 46.5235 307.668 37.1496 306.346 35.2937C305.025 33.4378 299.832 32.3683 299.832 32.3683L291.619 33.8782Z" fill="#3797DB"/>
<path d="M297.755 29.6945C297.472 29.6945 291.839 29.4114 289.699 30.9527C287.559 32.4941 288.031 33.8467 288.881 34.696C289.731 35.5453 295.395 36.0172 295.395 36.0172C295.395 36.0172 292.406 33.4692 293.003 32.8401C293.601 32.2424 299.329 31.8964 299.675 32.8401C299.769 33.0918 296.245 36.0172 296.245 36.0172C296.245 36.0172 301.091 35.6712 302.57 34.6646C304.238 33.5321 304.175 31.8964 302.538 30.6382C301.689 29.9462 297.755 29.6945 297.755 29.6945Z" fill="#3B77BE"/>
<path d="M296.245 36.0172C296.245 36.0172 303.388 32.3368 300.115 31.0157C296.843 29.6631 290.927 31.9593 291.493 33.4063C292.091 34.8533 295.364 36.0172 295.364 36.0172C295.364 36.0172 292.374 33.4692 292.972 32.8401C293.57 32.2424 299.297 31.8964 299.643 32.8401C299.769 33.0918 296.245 36.0172 296.245 36.0172Z" fill="#3B77BE"/>
<path d="M292.217 30.8269C292.217 30.8269 292.909 33.0603 292.909 33.6265C292.909 34.1927 294.514 36.0801 295.867 36.0801C297.22 36.0801 299.769 32.8401 299.769 32.8401L298.227 25.0076L292.217 30.8269Z" fill="#EFAC7F"/>
<path opacity="0.68" d="M298.636 26.9578L298.259 24.9761L292.248 30.8269C292.248 30.8269 292.941 33.0603 292.941 33.6265C292.941 33.7523 293.035 33.9725 293.192 34.2242C293.413 34.1927 293.601 34.1298 293.79 34.0669C295.552 33.4063 297.787 30.1349 298.636 26.9578Z" fill="#D19369"/>
<path d="M287.056 23.1831C287.056 23.1831 286.71 25.6681 288.157 28.9081C289.573 32.1481 291.745 33.3119 293.79 32.6514C295.836 31.9593 298.479 28.0902 298.92 24.8817C299.36 21.6732 297.944 18.6849 295.269 17.5525C292.626 16.3886 287.056 17.7097 287.056 23.1831Z" fill="#EFAC7F"/>
<path opacity="0.68" d="M295.993 22.3652C295.993 22.3652 289.951 23.0573 287.087 22.3338C287.056 22.6169 287.056 22.9 287.056 23.2146C287.056 23.2146 286.836 25.0076 287.622 27.524C288 27.4611 288.409 27.3668 288.818 27.2409C293.507 25.8569 295.993 22.3652 295.993 22.3652Z" fill="#D19369"/>
<path d="M293.822 15.4135C293.822 15.4135 290.549 15.3505 288.692 16.5773C286.867 17.7727 285.703 19.7858 286.081 21.9249L287.623 22.9H293.79L295.962 22.2394L298.92 22.3338C298.92 22.3338 299.455 19.6286 298.448 18.0243C297.535 16.4515 295.993 15.4135 293.822 15.4135Z" fill="#D6E0F0"/>
<path d="M298.511 18.0558C298.29 17.7098 298.039 17.3637 297.787 17.0806C297.661 17.6154 297.252 18.4332 296.213 19.4398C294.577 21.0755 288.787 21.1385 286.018 21.0755C286.018 21.3587 286.049 21.6418 286.08 21.9249L287.622 22.9H293.79L295.962 22.2394L298.92 22.3338C298.983 22.3652 299.518 19.6286 298.511 18.0558Z" fill="#D6E0F0"/>
<path d="M289.416 15.4135C289.416 15.4135 292.909 15.5707 294.357 17.8356C295.804 20.1004 296.245 22.9 296.245 22.9L297.724 22.6798C297.724 22.6798 296.559 15.6651 292.972 14.7843L289.416 15.4135Z" fill="#8D93AB"/>
<path d="M295.458 118.652C295.458 118.652 295.584 119.407 295.93 120.728C296.245 122.049 295.93 123.245 295.93 123.245C295.93 123.245 282.588 123.056 282.053 122.616C281.549 122.144 281.895 120.634 282.053 120.508C282.21 120.382 283.909 120.036 284.822 119.533C285.734 119.061 288.787 117.205 289.794 117.363C290.801 117.52 291.21 118.275 293.098 118.463C294.955 118.652 294.986 118.275 295.458 118.652Z" fill="#393B44"/>
<path d="M282.021 122.616C282.524 123.088 295.899 123.245 295.899 123.245C295.899 123.245 296.119 122.458 296.025 121.483C289.007 122.364 282.052 120.54 282.052 120.54C281.895 120.634 281.517 122.144 282.021 122.616Z" fill="#D1EAF2"/>
<path d="M296.025 121.452C291.21 122.112 285.955 121.609 282.052 120.508C289.227 122.049 295.112 121.546 294.734 121.546C294.734 121.578 296.119 121.452 296.025 121.452Z" fill="#93B8BD"/>
<path d="M301.122 118.558C301.122 118.558 300.934 119.313 300.556 120.602C300.147 121.892 300.399 123.088 300.399 123.088C300.399 123.088 313.741 123.717 314.276 123.276C314.811 122.836 314.528 121.326 314.402 121.2C314.276 121.074 312.577 120.603 311.696 120.068C310.815 119.533 307.857 117.52 306.85 117.583C305.843 117.677 305.402 118.401 303.483 118.495C301.594 118.589 301.594 118.18 301.122 118.558Z" fill="#393B44"/>
<path d="M314.276 123.276C313.741 123.717 300.399 123.087 300.399 123.087C300.399 123.087 300.241 122.301 300.399 121.294C307.353 122.584 314.402 121.169 314.402 121.169C314.56 121.326 314.843 122.867 314.276 123.276Z" fill="#D1EAF2"/>
<path d="M300.399 121.326C305.15 122.27 310.437 122.049 314.402 121.2C307.133 122.301 301.28 121.452 301.689 121.515C301.689 121.483 300.304 121.326 300.399 121.326Z" fill="#93B8BD"/>
<path d="M296.811 46.9639C296.748 46.9639 296.685 46.9324 296.654 46.901C296.622 46.8381 295.49 45.3911 295.49 44.0699C295.49 42.6859 297.315 42.1511 297.315 41.113C297.315 39.4459 295.08 39.3201 297.094 35.5453C297.126 35.451 297.252 35.4195 297.346 35.4824C297.441 35.5139 297.472 35.6397 297.409 35.7341C297.409 35.7341 296.622 37.244 296.622 38.282C296.622 39.2886 297.692 39.8863 297.692 41.1445C297.692 42.4027 295.867 42.906 295.867 44.1014C295.867 45.2967 296.937 46.6808 296.969 46.7122C297.031 46.8066 297 46.9324 296.937 46.9639C296.906 46.9324 296.874 46.9639 296.811 46.9639Z" fill="white"/>
<path d="M292.815 44.1328C291.43 41.1445 294.42 41.5849 293.161 37.7473C292.689 36.3317 293.35 35.3566 293.381 35.3251C293.444 35.2308 293.57 35.2308 293.633 35.2937C293.727 35.3566 293.727 35.4824 293.664 35.5453C292.563 37.1496 294.766 38.9111 293.318 41.3018C292.689 42.3084 292.594 42.8117 293.129 43.9756C293.287 44.1957 292.941 44.353 292.815 44.1328Z" fill="white"/>
<path d="M305.213 60.0811C305.213 60.0811 303.42 61.8111 301.123 62.5661C298.699 63.3525 298.983 65.8061 300.147 66.9699C301.311 68.1338 302.161 68.3225 302.822 67.9136C304.521 66.8756 307.888 61.874 307.888 61.874L305.213 60.0811Z" fill="#EFAC7F"/>
<path d="M314.465 50.4869C313.804 44.8563 306.346 35.3251 306.346 35.3251L304.081 45.8944C304.081 45.8944 307.888 50.3611 308.109 52.3743C308.329 54.3875 304.962 59.0115 304.647 59.8294C304.332 60.6473 306.724 63.1323 307.133 63.1323C309.619 63.1637 315.126 56.0861 314.465 50.4869Z" fill="#3B77BE"/>
<path d="M267.357 35.797C267.357 35.797 270.535 34.7275 271.259 35.4824C271.983 36.2059 277.364 41.7422 277.206 42.3084C277.175 42.4657 274.783 43.5666 273.493 43.3464C272.203 43.0633 265.972 36.3632 267.357 35.797Z" fill="#8D93AB"/>
<path d="M268.867 35.797C268.867 35.797 269.906 35.451 270.913 35.2937C269.843 34.9791 267.357 35.797 267.357 35.797C265.941 36.3632 272.171 43.0948 273.493 43.315C273.871 43.3779 274.311 43.315 274.783 43.2521C273.115 42.4342 267.546 36.3317 268.867 35.797Z" fill="#8D93AB"/>
<path d="M269.623 39.9177C269.623 39.9177 268.773 41.2389 272.329 42.7488C272.927 43.0004 273.776 39.3515 273.43 39.0055C273.053 38.628 271.951 41.5534 271.825 41.4905C271.322 41.2703 273.588 38.4393 272.958 38.2191C272.36 37.9989 271.007 40.5783 270.85 40.421C270.63 40.2008 272.864 37.9045 271.92 37.6843C271.511 37.59 270.126 38.6909 269.623 39.9177Z" fill="#EFAC7F"/>
<path d="M286.112 21.8934L281.423 24.9761C281.423 24.9761 284.129 26.8005 288.818 25.794C293.507 24.8188 296.024 22.208 296.024 22.208C296.024 22.208 288.157 22.9 286.112 21.8934Z" fill="#D6E0F0"/>
<path d="M299.958 24.2841C299.958 25.731 298.762 26.9264 297.315 26.9264C295.867 26.9264 294.671 25.731 294.671 24.2841C294.671 22.8371 295.867 21.6418 297.315 21.6418C298.762 21.6418 299.958 22.8056 299.958 24.2841Z" fill="#8D93AB"/>
<path d="M299.612 24.001C299.612 25.2907 298.699 26.2972 297.629 26.2972C296.528 26.2972 295.647 25.2592 295.647 24.001C295.647 22.7427 296.56 21.7047 297.629 21.7047C298.699 21.7047 299.612 22.7427 299.612 24.001Z" fill="#8D93AB"/>
<path d="M302.601 68.0394C298.731 66.7183 298.007 62.7863 299.014 58.9486L287.056 57.9735C286.899 57.9735 286.773 58.0679 286.741 58.2251C286.71 58.3824 286.836 58.5082 286.993 58.5397L298.29 59.4519C298.007 60.8989 297.157 66.7812 302.413 68.5742C302.444 68.5742 302.476 68.5742 302.507 68.5742C302.633 68.5742 302.727 68.5113 302.759 68.3854C302.822 68.2282 302.727 68.1023 302.601 68.0394Z" fill="#8D93AB"/>
<path opacity="0.63" d="M298.385 168.887H214.71C212.948 168.887 211.5 167.472 211.5 165.679V165.647H298.385C299.297 165.647 299.99 166.371 299.99 167.252C299.99 168.133 299.297 168.887 298.385 168.887Z" fill="#62BDF3"/>
<path d="M232.647 49.7949C232.647 49.7949 226.448 48.1907 225.724 54.7964C225 61.4022 228.336 62.4088 226.511 65.5859C224.685 68.7629 222.64 66.3723 222.231 75.4316C221.822 84.4595 244.385 89.5868 247.972 82.8238C251.559 76.0607 255.021 79.1119 257.979 77.8223C263.297 75.526 262.29 63.9187 255.178 64.5478C248.066 65.1769 244.699 65.5229 245.549 60.2069C246.399 54.8593 243.944 50.3297 240.734 48.4109C237.493 46.4291 233.371 46.4291 232.647 49.7949Z" fill="#393B44"/>
<path d="M215.465 161.149C215.465 161.149 215.591 162.879 214.71 163.855C213.829 164.83 210.587 165.364 210.147 166.465C209.706 167.598 213.42 167.629 214.678 167.315C215.937 167 219.178 166.717 219.997 166.654C220.815 166.623 218.958 161.212 218.801 161.055C218.58 160.898 215.465 161.149 215.465 161.149Z" fill="#FF7446"/>
<path d="M234.472 160.08C234.472 160.08 233.654 163.729 233.748 165.113C233.811 166.497 235.542 168.699 236.832 168.604C238.154 168.541 239.224 167.661 238.909 165.962C238.594 164.263 237.587 160.206 237.587 160.206L234.472 160.08Z" fill="#EFAC7F"/>
<path d="M244.227 98.8034C244.227 98.8034 245.077 71.1536 243.755 69.8639C243.22 69.3291 238.941 67.9136 235.983 67.4418C231.608 66.7183 228.147 67.0328 228.147 67.0328C228.147 67.0328 223.678 72.4118 223.678 74.3936C223.678 76.3753 223.395 99.0551 223.395 99.0551C219.934 100.345 214.553 123.276 214.175 129.19C213.766 135.104 214.647 162.628 214.647 162.628L219.682 162.093C222.42 157.752 223.678 135.041 224.497 132.178C225.598 128.278 230.822 116.293 230.822 116.293L233.528 115.129C233.528 115.129 232.899 133.185 233.119 137.337C233.339 141.489 233.087 161.621 233.087 161.621L238.154 161.338C242.119 154.229 244.951 121.452 244.857 119.722C244.762 117.992 246.493 115.192 246.871 110.285C247.122 106.384 244.227 98.8034 244.227 98.8034Z" fill="#3797DB"/>
<path d="M235.353 98.1114H226.385V99.0551H235.353V98.1114Z" fill="white"/>
<path d="M231.671 99.4326H229.941C229.626 99.4326 229.374 99.1809 229.374 98.8664V98.4574C229.374 98.1429 229.626 97.8912 229.941 97.8912H231.671C231.986 97.8912 232.238 98.1429 232.238 98.4574V98.8664C232.238 99.1809 231.986 99.4326 231.671 99.4326Z" fill="#393B44"/>
<path opacity="0.38" d="M244.227 98.8034C244.227 98.8034 244.951 74.2677 243.976 70.3357C242.654 69.455 238.5 67.8822 237.462 67.8193C237.65 69.8324 235.825 81.1881 233.937 87.0074C232.741 90.6878 232.93 95.2175 233.371 98.7091C233.654 100.88 234.063 102.987 234.566 104.843C234.661 104.874 237.462 106.384 242.308 106.384C242.528 106.384 244.322 106.259 246.399 105.913C245.612 102.389 244.227 98.8034 244.227 98.8034Z" fill="#3B77BE"/>
<path opacity="0.38" d="M229.343 105.095C229.437 104.749 228.619 100.754 228.367 98.6776C226.668 84.8684 228.178 67.253 228.21 67.0014C228.115 67.0958 227.801 67.4418 227.423 67.9136C226.227 69.455 223.93 72.5376 223.678 74.1104C223.678 74.1419 223.678 74.2048 223.678 74.2363V74.2677C223.678 74.5194 223.678 75.0227 223.678 75.6833C223.678 75.8091 223.678 75.9664 223.678 76.0922C223.615 81.9115 223.427 98.9607 223.427 98.9607C222.294 99.3696 220.972 102.043 219.713 105.661C223.836 106.007 229.028 106.07 229.343 105.095Z" fill="#3B77BE"/>
<path d="M249.105 102.421C249.105 105.881 239.79 106.133 235.353 104.151L235.825 89.115L237.336 67.7249C237.336 67.7249 242.937 68.8573 244.857 70.147C244.857 70.147 245.486 92.3864 246.021 96.9161C246.556 101.414 249.105 100.848 249.105 102.421Z" fill="#D6E0F0"/>
<path d="M223.206 68.2282C223.206 68.2282 221.003 85.9379 221.003 90.562C221.003 95.186 220.122 103.144 220.122 103.144C220.122 103.144 224.843 104.969 228.147 104.151C228.147 104.151 225 86.3783 225 85.2144C225 84.0506 228.178 67.0014 228.178 67.0014C228.178 67.0014 225.189 67.1587 223.206 68.2282Z" fill="#D6E0F0"/>
<path d="M220.28 162.376L214.143 162.785V161.212L220.532 160.866L220.28 162.376Z" fill="#393B44"/>
<path d="M238.783 161.369L232.71 161.778L232.678 160.206L239.067 159.86L238.783 161.369Z" fill="#3B77BE"/>
<path d="M219.619 163.508C219.147 164.106 217.573 165.364 212.948 164.83C211.752 165.301 210.399 165.773 210.115 166.465C209.675 167.598 213.388 167.629 214.647 167.315C215.906 167 219.147 166.717 219.965 166.654C220.406 166.623 220.059 164.987 219.619 163.508Z" fill="#393B44"/>
<path d="M233.748 165.113C233.811 166.497 235.542 168.699 236.832 168.604C238.154 168.541 239.224 167.661 238.909 165.962C238.815 165.396 238.626 164.547 238.437 163.666C238.28 164.735 237.776 166.528 236.392 165.931C234.881 165.239 234.22 163.666 233.937 163.068C233.811 163.855 233.748 164.609 233.748 165.113Z" fill="#8D93AB"/>
<path opacity="0.18" d="M220.689 97.325C222.451 97.2306 224.717 97.1048 226.92 97.0104C226.794 96.2555 226.668 95.4376 226.511 94.6512L220.846 94.9344C220.783 95.7522 220.72 96.5701 220.689 97.325Z" fill="#393B44"/>
<path opacity="0.18" d="M244.29 98.1114C245.045 98.1114 245.675 97.8912 246.115 97.6396C245.958 96.8217 245.864 95.5635 245.801 94.3996H233.969C233.969 95.186 234.031 95.9724 234.094 96.6959C234.881 96.6644 235.416 96.6644 235.605 96.6644C236.989 96.633 242.371 98.1114 244.29 98.1114Z" fill="#393B44"/>
<path d="M245.171 94.3681L243.881 94.3996L244.133 109.499L245.423 109.467L245.171 94.3681Z" fill="#8D93AB"/>
<path opacity="0.38" d="M238.657 114.783L239.035 120.791C239.035 120.791 241.269 122.521 244.668 122.49C244.794 120.917 244.857 119.879 244.825 119.627C244.794 118.872 245.109 117.866 245.518 116.576L238.657 114.783Z" fill="#3B77BE"/>
<path d="M223.238 68.2596C223.238 68.2596 221.57 68.6056 219.241 76.4382C216.913 84.2707 218.455 94.3367 220.059 95.3747C221.664 96.4128 237.336 96.0353 237.336 96.0353L237.399 90.4047C237.399 90.4047 225.535 88.5488 224.371 87.1018C224.087 86.7558 224.591 85.2459 224.465 83.5158C224.15 78.2312 223.238 68.2596 223.238 68.2596Z" fill="#D6E0F0"/>
<path d="M223.836 86.2839C223.836 86.2839 222.231 85.1515 221.601 84.428C221.004 83.6731 219.776 82.6665 219.713 83.2012C219.65 83.736 220.217 84.4909 220.217 84.4909C220.217 84.4909 218.014 82.9496 217.699 83.1698C217.416 83.39 217.101 85.0571 217.322 86.8816C217.542 88.706 222.734 90.0586 222.734 90.0586L223.836 86.2839Z" fill="#EFAC7F"/>
<path d="M244.007 120.068L243.535 120.099C240.86 120.477 238.941 119.407 238.878 118.401L238.406 108.932L243.598 108.398C244.605 108.303 245.549 108.901 245.864 109.876L248.287 117.646C248.57 118.715 246.587 119.816 244.007 120.068Z" fill="#8D93AB"/>
<path d="M238.815 118.149L238.059 108.964L238.878 108.869C239.885 108.775 240.829 109.467 241.018 110.474L242.371 117.677C242.78 120.036 239.004 120.54 238.815 118.149Z" fill="#8D93AB"/>
<path d="M238.122 110.096L223.552 67.9451L224.654 67.5361L239.224 109.719L238.122 110.096Z" fill="#8D93AB"/>
<path d="M244.542 96.9161C238.878 97.8597 226.951 93.6761 222.136 92.1347L223.962 85.875C223.962 85.875 238.217 89.807 240.074 88.9891C240.986 88.5802 243.346 84.1764 244.227 79.7411C245.109 75.18 244.888 70.147 244.888 70.147C244.888 70.147 248.979 75.4945 247.846 86.8187C246.934 95.4691 247.028 96.5071 244.542 96.9161Z" fill="#D6E0F0"/>
<path d="M243.126 84.0506C243.126 84.0506 241.773 85.183 240.766 86.0323C239.727 86.8816 238.091 89.1464 238.091 89.1464C238.091 89.1464 240.011 89.6183 240.703 89.6812C241.395 89.7441 243.629 88.5173 244.385 88.5802C245.171 88.6431 244.92 87.5107 243.976 87.6994C243.031 87.8882 242.087 87.9826 242.087 87.9826C242.087 87.9826 244.322 86.5356 245.36 85.6863C246.399 84.837 245.549 84.2078 244.699 84.8999C243.85 85.5919 242.906 86.0008 242.906 86.0008C242.906 86.0008 245.895 83.4844 245.455 82.9496C245.045 82.4148 243.126 84.0506 243.126 84.0506Z" fill="#EFAC7F"/>
<path d="M247.122 114.028C246.745 114.469 246.273 114.877 245.643 115.161C243.378 116.073 240.168 112.33 240.168 112.298L240.01 112.424C240.136 112.581 242.654 115.507 244.888 115.507C245.171 115.507 245.455 115.475 245.738 115.349C246.367 115.098 246.839 114.72 247.217 114.28L247.122 114.028Z" fill="#8D93AB"/>
<path d="M235.416 61.0562C235.416 61.0562 235.133 65.5229 235.416 66.561C235.479 66.8441 235.668 67.0957 235.888 67.253C236.958 68.1967 233.528 77.7908 232.49 77.4133C231.357 77.0359 229.374 70.5245 228.713 68.4169C228.525 67.7878 228.871 67.1272 229.5 66.9385C230.539 66.6239 230.916 58.4139 230.916 58.4139L235.416 61.0562Z" fill="#EFAC7F"/>
<path opacity="0.65" d="M231.609 58.1622C231.609 58.1622 231.609 58.3824 231.577 58.697C231.546 59.389 231.609 60.0811 231.829 60.7416C232.867 63.7614 234.629 65.523 236.014 65.9004C235.857 64.422 236.077 60.8045 236.077 60.8045L231.609 58.1622Z" fill="#D19369"/>
<path d="M231.011 54.9537C231.011 54.9537 231.829 51.7452 234.252 50.833C236.675 49.9207 238.909 50.7071 239.664 53.8842C240.42 57.0613 239.098 62.0628 237.619 63.5727C236.077 65.0826 231.011 62.3773 231.011 54.9537Z" fill="#EFAC7F"/>
<path d="M231.703 55.9918C231.703 55.9918 230.539 54.0729 229.752 55.1424C228.997 56.212 229.594 58.8228 230.979 59.0115C232.395 59.1688 231.703 55.9918 231.703 55.9918Z" fill="#EFAC7F"/>
<path d="M273.713 159.514C273.713 159.514 273.713 159.671 273.713 159.891C273.713 160.583 273.587 162.156 272.612 163.32C271.322 164.861 271.29 166.749 272.675 167.095C274.059 167.409 277.332 167 277.332 167C277.332 167 278.056 165.553 277.552 161.653C277.049 157.752 276.766 153.474 276.766 153.474L273.021 152.813L273.713 159.514Z" fill="#EFAC7F"/>
<path d="M272.958 161.181C272.958 161.181 271.574 163.32 271.259 164.201C270.944 165.081 271.007 167.315 271.259 167.535C273.493 169.548 277.741 167.755 277.741 167.755C277.741 167.755 278.025 166.277 278.182 164.484C278.339 162.691 278.245 160.992 277.741 160.992C277.238 160.992 277.143 161.936 276.011 161.684C274.846 161.369 274.154 160.929 272.958 161.181Z" fill="#8D93AB"/>
<path d="M278.087 165.364C277.206 165.742 276.042 166.182 274.972 166.371C273.808 166.56 272.234 165.962 271.07 165.396C271.007 166.34 271.101 167.409 271.259 167.566C273.493 169.58 277.741 167.787 277.741 167.787C277.741 167.787 277.93 166.717 278.087 165.364Z" fill="#D1EAF2"/>
<path d="M262.92 156.966C263.392 158.696 262.92 160.615 261.692 161.747C261.252 162.156 260.78 162.502 260.213 162.785C258.042 163.855 255.21 163.634 254.832 165.836C254.423 168.038 268.615 165.207 268.615 165.207C268.615 165.207 267.64 159.828 267.577 158.916C267.514 158.004 267.671 154.701 267.671 154.701L262.196 154.26L262.92 156.966Z" fill="#EFAC7F"/>
<path d="M268.018 161.401C268.018 161.401 268.206 162.25 268.584 163.697C268.962 165.144 268.741 166.497 268.741 166.497C268.741 166.497 255.462 167.189 254.927 166.717C254.392 166.245 254.675 164.515 254.801 164.358C254.927 164.201 256.626 163.666 257.507 163.068C258.388 162.47 261.315 160.174 262.322 160.269C263.329 160.363 263.769 161.181 265.689 161.307C267.546 161.432 267.546 160.961 268.018 161.401Z" fill="#8D93AB"/>
<path d="M254.927 166.749C255.462 167.22 268.741 166.528 268.741 166.528C268.741 166.528 268.899 165.616 268.741 164.515C261.818 165.962 254.801 164.389 254.801 164.389C254.643 164.515 254.392 166.277 254.927 166.749Z" fill="#D1EAF2"/>
<path d="M268.741 164.484C263.99 165.553 258.766 165.333 254.801 164.358C262.039 165.585 267.86 164.641 267.451 164.672C267.483 164.704 268.836 164.484 268.741 164.484Z" fill="#9CB9BD"/>
<path d="M279.189 103.994L277.93 158.538L271.951 157.689C271.951 157.689 270.063 113.934 268.962 112.613C267.86 111.323 267.42 112.707 267.42 112.707C267.42 112.707 262.637 130.92 263.549 134.538C264.43 138.186 268.395 157.626 268.395 157.626L262.668 157.878C262.668 157.878 256.123 142.968 256.123 132.587C256.123 122.207 260.151 104.937 260.151 104.937L279.189 103.994Z" fill="#8D93AB"/>
<path d="M268.615 156.242H261.724V157.846H268.615V156.242Z" fill="#8D93AB"/>
<path d="M278.465 156.525H271.51V158.57H278.465V156.525Z" fill="#8D93AB"/>
<path d="M276.64 157.312H276.608C276.514 157.28 276.451 157.186 276.483 157.06C277.584 151.272 277.647 113.745 277.647 113.368C277.647 113.242 277.71 113.147 277.836 113.147C277.93 113.147 278.025 113.242 278.025 113.368C278.025 114.909 277.962 151.335 276.86 157.154C276.797 157.249 276.734 157.312 276.64 157.312Z" fill="#8D93AB"/>
<path d="M267.388 157.312C267.325 157.312 267.262 157.249 267.231 157.186C266.979 156.337 260.654 136.173 261.032 133.405C261.378 130.668 265.406 113.399 265.595 112.644C265.626 112.518 265.72 112.455 265.815 112.487C265.909 112.518 265.972 112.644 265.941 112.738C265.909 112.927 261.755 130.731 261.409 133.437C261.063 136.11 267.546 156.808 267.577 157.029C267.609 157.123 267.577 157.249 267.483 157.28C267.451 157.312 267.42 157.312 267.388 157.312Z" fill="#8D93AB"/>
<path d="M261.22 65.7746L252.881 76.7842L262.699 80.3702L261.22 65.7746Z" fill="#8D93AB"/>
<path d="M282.902 62.2201C281.643 60.9618 278.685 60.0181 276.766 59.5148C275.664 59.2317 274.5 59.1688 273.367 59.2946L269.024 59.8923C269.024 59.8923 263.392 63.5098 261.283 65.6173C259.175 67.7249 257.255 80.905 257.255 80.905L258.199 85.9379L257.098 108.083C257.57 108.083 272.077 109.845 280.164 107.422C280.164 107.422 280.164 95.6264 280.385 88.4544C281.392 83.044 284.57 63.9187 282.902 62.2201Z" fill="#393B44"/>
<path d="M282.808 62.1572C282.147 61.528 281.108 61.0247 280.29 60.7102C280.29 60.7102 278.685 59.8294 277.238 65.8061C275.79 71.7827 277.647 79.049 276.986 79.6782C276.325 80.3387 262.227 79.5838 262.227 79.5838C262.227 79.5838 270.472 84.3337 274.5 87.7938C276.105 89.1779 280.385 89.9014 280.416 89.8699C280.416 89.3981 280.448 88.9577 280.448 88.4858C280.92 85.8435 284.759 63.9501 282.808 62.1572Z" fill="#8D93AB"/>
<path d="M247.217 74.7396L254.297 88.1398C254.455 88.4544 254.801 88.6431 255.147 88.6117L263.581 88.1084C264.178 88.0769 264.588 87.4478 264.367 86.8816L260.025 74.6767C259.899 74.3306 259.584 74.079 259.238 74.079L248.067 73.387C247.374 73.3555 246.871 74.1105 247.217 74.7396Z" fill="#62BDF3"/>
<path d="M265.028 86.8187L260.623 74.7081C260.497 74.3621 260.182 74.1419 259.804 74.1104L259.364 74.079C259.616 74.1734 259.804 74.3621 259.93 74.6452L264.336 86.8501C264.525 87.3849 264.21 87.9511 263.675 88.0455L264.21 88.014C264.839 87.9826 265.248 87.3849 265.028 86.8187Z" fill="#3797DB"/>
<path d="M280.888 78.5143L280.227 80.905C280.227 80.905 265.972 77.2246 264.304 76.4382C262.951 75.7776 257.57 74.3621 255.588 74.4879C255.273 74.5194 255.21 74.9598 255.556 75.0541C256.815 75.3687 259.332 75.9978 259.332 76.2495C259.332 76.5955 256.815 77.0673 257.004 77.4762C257.381 78.2941 258.609 78.7974 258.829 79.5523C259.049 80.3073 261.63 79.7096 262.479 79.7096C263.36 79.7096 279.598 89.5554 284.539 87.2276C289.448 84.8999 286.49 74.5194 286.49 74.5194L280.888 78.5143Z" fill="#EFAC7F"/>
<path d="M254.171 83.6731C253.857 83.3585 253.857 82.5407 253.479 82.1632C253.101 81.7857 252.692 82.5407 252.598 81.6914C252.504 80.8421 253.101 79.5209 252.504 79.5838C251.906 79.6467 251.119 82.0688 251.119 82.0688C250.678 83.044 252.598 86.7243 253.605 86.4727C254.612 86.221 254.99 85.0257 254.99 84.4909C254.99 83.9247 254.518 83.9877 254.171 83.6731Z" fill="#EFAC7F"/>
<path d="M269.056 59.9238C269.056 59.9552 269.056 59.9552 269.056 59.9238C269.025 59.9238 269.025 59.9238 269.025 59.9552C269.025 59.9552 269.025 59.9552 268.993 59.9552C268.993 59.9552 268.962 59.9552 268.962 59.9867C268.962 59.9867 268.962 59.9867 268.93 59.9867C268.899 59.9867 268.867 60.0181 268.836 60.0496C268.301 60.3956 267.168 61.1506 265.878 62.0313C265.878 62.0313 265.343 64.1389 265.594 65.4915C265.846 66.8441 266.381 67.2845 267.136 66.9699C267.892 66.6868 269.308 64.6736 269.622 64.768C269.937 64.8938 272.14 67.599 273.178 67.1901C273.871 66.907 276.011 62.2515 277.08 59.4834C277.018 59.4834 276.923 59.4519 276.86 59.4205C275.759 59.1374 274.594 59.0745 273.462 59.2003L269.056 59.9238Z" fill="#D1EAF2"/>
<path d="M265.783 57.4387L266.727 62.2201C266.727 62.2201 267.64 64.9253 269.402 64.9253C271.164 64.9253 273.997 59.2946 273.997 59.2946L269.874 53.8842L265.783 57.4387Z" fill="#F99662"/>
<path d="M265.783 57.4387L266.727 62.2201C266.727 62.2201 267.64 64.9253 269.402 64.9253C271.164 64.9253 273.997 59.2946 273.997 59.2946L269.874 53.8842L265.783 57.4387Z" fill="#EFAC7F"/>
<path opacity="0.4" d="M270.913 55.1739L269.906 53.8528L265.783 57.4073L266.287 59.9867C268.521 59.5778 270.535 57.7533 270.913 55.1739Z" fill="#D19369"/>
<path d="M261.472 46.7751C261.472 46.7751 260.654 57.6275 263.832 58.6026C267.011 59.5778 270.944 57.25 270.944 53.5696C270.976 49.9207 269.56 42.56 261.472 46.7751Z" fill="#EFAC7F"/>
<path d="M264.399 44.3216C264.399 44.3216 258.42 43.0948 258.231 44.8249C258.01 46.5549 260.056 47.6559 261.409 47.6559C262.762 47.6559 266.161 47.1841 267.294 48.3479C268.427 49.4804 270.755 55.0166 270.755 55.0166L271.951 56.5894C271.951 56.5894 272.14 53.5696 273.493 51.5879C274.846 49.6376 273.713 46.5549 272.108 44.5103C270.472 42.4657 265.72 44.3216 264.399 44.3216Z" fill="#5E2E0D"/>
<path d="M268.71 51.179C268.71 51.179 269.15 49.6376 269.969 49.7949C271.857 50.1095 270.787 53.5382 270.189 53.6955C268.962 53.9786 268.395 53.0349 268.71 51.179Z" fill="#EFAC7F"/>
<path d="M277.616 66.8441C277.553 70.3986 279.472 80.9364 279.472 80.9364C279.472 80.9364 286.962 80.7791 287.56 80.1815C288.157 79.5838 286.238 63.6985 282.934 61.4651C279 58.8228 277.678 63.4154 277.616 66.8441Z" fill="#393B44"/>
<path d="M270.157 73.733C269.937 73.733 269.622 73.7015 269.339 73.4499C269.025 73.1982 268.867 72.7578 268.867 72.1287C268.867 70.4301 269.182 65.8061 269.182 65.7431C269.182 65.6802 269.245 65.6488 269.308 65.6488C269.371 65.6488 269.434 65.7117 269.402 65.7746C269.402 65.8061 269.087 70.4301 269.087 72.1287C269.087 72.6635 269.213 73.0409 269.497 73.2611C269.874 73.5442 270.346 73.4813 270.378 73.4813C270.441 73.4813 270.504 73.5128 270.504 73.5757C270.504 73.6386 270.472 73.7015 270.409 73.7015C270.378 73.7015 270.283 73.733 270.157 73.733Z" fill="#B3CCFF"/>
<path d="M270.441 66.7812C270.441 66.9385 270.315 67.0328 270.189 67.0328C270.063 67.0328 269.937 66.907 269.937 66.7812C269.937 66.6239 270.063 66.5295 270.189 66.5295C270.315 66.5295 270.441 66.6239 270.441 66.7812Z" fill="#B3CCFF"/>
<path d="M270.441 69.3606C270.441 69.5179 270.315 69.6122 270.189 69.6122C270.063 69.6122 269.937 69.4864 269.937 69.3606C269.937 69.2033 270.063 69.1089 270.189 69.1089C270.315 69.1089 270.441 69.2348 270.441 69.3606Z" fill="#B3CCFF"/>
<path d="M270.441 72.0344C270.441 72.1916 270.315 72.286 270.189 72.286C270.063 72.286 269.937 72.1602 269.937 72.0344C269.937 71.9085 270.063 71.7827 270.189 71.7827C270.315 71.7827 270.441 71.8771 270.441 72.0344Z" fill="#B3CCFF"/>
<path d="M201.493 111.575C201.493 111.575 198.818 111.386 195.136 115.066C191.455 118.747 192.682 131.014 188.245 132.776C183.808 134.569 184.154 139.256 187.364 141.206C190.574 143.156 187.71 144.572 191.706 149.605C195.703 154.638 215.276 161.495 218.455 155.047C221.664 148.598 223.269 150.014 227.14 148.001C231.011 145.987 230.979 135.953 223.206 131.046C215.434 126.17 219.084 120.477 214.458 115.161C209.832 109.907 201.493 111.575 201.493 111.575Z" fill="#5E2E0D"/>
<path opacity="0.6" d="M213.168 123.465C211.248 115.286 194.192 116.545 193.248 121.42C192.808 123.717 192.462 128.026 192.776 130.322C193.217 133.751 193.815 135.796 197.025 137.84C198.22 138.595 199.133 139.885 198.976 141.206C197.622 152.184 208.353 153.852 212.413 150.895C217.794 141.93 214.206 134.129 212.727 129.253C211.815 126.39 213.64 125.478 213.168 123.465Z" fill="#5E2E0D"/>
<path d="M187.678 162.03C187.678 162.03 180.22 177.318 180.22 182.445C180.22 187.572 182.675 189.554 184.72 189.397C188.087 189.145 195.42 168.101 195.42 168.101L187.678 162.03Z" fill="#EFAC7F"/>
<path opacity="0.65" d="M195.388 168.133C194.822 167.692 190.29 164.106 189.661 163.634C189.094 166.874 188.654 170.051 188.654 171.75C188.654 172.882 189.818 176.437 190.983 179.362C193.406 173.858 195.388 168.133 195.388 168.133Z" fill="#D19369"/>
<path d="M196.741 148.473C196.741 148.473 192.367 149.668 188.654 153.38C184.941 157.091 183.682 168.888 183.682 168.888C183.682 168.888 183.147 170.681 193.626 171.719C204.105 172.788 196.741 148.473 196.741 148.473Z" fill="#D6E0F0"/>
<path d="M196.741 148.473C195.545 148.85 192.084 150.171 191.675 153.38C191.675 153.38 188.969 166.056 188.717 171.027C190.007 171.247 191.612 171.498 193.657 171.719C204.105 172.788 196.741 148.473 196.741 148.473Z" fill="#D6E0F0"/>
<path d="M182.045 174.864C179.402 171.404 169.71 160.929 168.829 159.325C167.948 157.721 164.895 163.163 165.178 163.351C165.997 163.855 177.64 194.084 185.287 189.145C188.906 186.817 184.657 178.356 182.045 174.864Z" fill="#EFAC7F"/>
<path d="M200.297 186.471C200.297 186.471 196.206 198.299 195.483 207.169C194.79 216.072 194.35 228.78 194.35 228.78L234.063 228.685C234.063 228.685 234.472 216.229 234.126 204.779C233.78 193.329 223.395 185.496 223.395 185.496L200.297 186.471Z" fill="#3797DB"/>
<path opacity="0.4" d="M234.157 204.747C234.063 201.728 233.245 198.928 232.143 196.506L208.164 202.357C208.164 202.357 206.56 207.515 223.269 209.151C227.706 209.592 231.325 209.655 234.22 209.56C234.22 207.956 234.189 206.352 234.157 204.747Z" fill="#3B77BE"/>
<path opacity="0.4" d="M200.297 186.471C200.297 186.471 200.045 187.195 199.668 188.422C205.962 190.97 224.119 193.172 229.059 191.379C226.29 187.667 223.395 185.496 223.395 185.496L200.297 186.471Z" fill="#3B77BE"/>
<path d="M211.217 206.886L210.965 206.792C208.542 205.88 203.885 202.577 203.853 202.545C203.664 202.42 203.413 202.483 203.318 202.703C203.192 202.923 203.255 203.206 203.444 203.332C203.633 203.458 207.944 206.54 210.493 207.578L212.538 228.717H213.357L211.217 206.886Z" fill="#8D93AB"/>
<path d="M191.675 153.38C191.675 153.38 190.542 161.778 190.542 166.119C190.542 170.46 196.332 185.842 197.843 187.352C200.99 190.498 221.35 189.271 224.402 186.188C227.455 183.137 228.525 153.82 224.843 150.14C221.161 146.459 212.759 146.774 212.759 146.774L197.15 148.347C197.15 148.347 192.147 149.479 191.675 153.38Z" fill="#D6E0F0"/>
<path opacity="0.61" d="M224.811 150.14C223.804 149.133 222.451 148.441 221.035 147.938C218.234 147.655 217.164 151.083 216.661 153.883C215.245 161.338 217.227 172.411 218.171 175.651C218.706 177.538 223.049 180.086 227.171 179.111C228.178 169.202 227.329 152.625 224.811 150.14Z" fill="#D6E0F0"/>
<path d="M220.878 167.441C220.878 167.441 228.273 182.76 232.332 185.937C236.392 189.114 240.042 189.743 240.955 187.887C242.339 185.087 233.339 163.603 233.339 163.603L220.878 167.441Z" fill="#EFAC7F"/>
<path opacity="0.65" d="M233.308 163.634L220.846 167.472C220.846 167.472 222.483 170.838 224.622 174.738C227.832 174.864 232.71 173.134 236.234 170.995C234.661 166.874 233.308 163.634 233.308 163.634Z" fill="#D19369"/>
<path d="M201.902 174.581C201.902 174.581 201.997 174.55 202.06 174.455L201.902 174.581Z" fill="#DC7A63"/>
<path d="M197.496 171.75C197.371 172.882 198.126 173.166 199.825 173.449C202.154 173.858 202.185 174.266 202.028 174.455L204.766 172.159C203.255 171.278 197.622 170.618 197.496 171.75Z" fill="#EFAC7F"/>
<path d="M202.815 173.732C202.532 176.343 201.587 177.79 199.699 178.324C197.15 174.644 194.444 170.083 191.832 164.609C191.455 163.792 191.706 163.697 192.462 164.201C194.727 165.679 197.465 165.333 198.913 163.76C199.605 163.037 200.014 162.754 200.266 163.508C201.367 166.78 201.713 170.429 202.815 173.732Z" fill="#3B77BE"/>
<path d="M229.059 178.576C226.51 177.978 205.521 172.599 204.797 172.159L203.318 173.386C202.185 174.298 200.895 175.021 199.511 175.462C199.416 175.493 199.322 175.525 199.227 175.525C198.315 175.776 197.937 174.958 197.465 174.675C196.993 174.424 197.15 173.071 197.087 172.442C196.993 171.31 195.671 171.31 195.105 172.253C194.57 173.197 194.948 175.053 194.948 175.053C194.948 175.053 194.413 175.682 194.381 176.217C194.35 176.751 194.727 177.506 194.727 177.506C194.727 177.506 194.476 178.702 194.822 179.299C195.168 179.897 197.497 181.344 198.094 181.69C198.692 182.036 202.563 180.558 204.483 180.495C207.441 180.369 238.531 192.826 240.797 188.642C243.283 184.081 233.811 179.708 229.059 178.576Z" fill="#EFAC7F"/>
<path d="M221.004 147.938C218.203 147.655 216.346 151.052 216.629 153.883C217.196 159.231 219.776 167.472 220.72 170.712C222.136 175.588 238.406 168.195 236.99 164.012C235.573 159.828 226.039 148.473 221.004 147.938Z" fill="#D6E0F0"/>
<path d="M200.077 136.551C200.077 136.551 200.549 144.32 200.077 146.113C199.605 147.906 197.15 148.378 197.15 148.378C197.15 148.378 194.696 156.337 201.934 158.822C209.171 161.307 212.727 146.805 212.727 146.805C212.727 146.805 210.745 146.9 210.304 146.805C208.479 146.271 208.794 134.443 208.794 134.443L200.077 136.551Z" fill="#EFAC7F"/>
<path opacity="0.65" d="M206.402 139.13C207.315 138.627 208.857 136.016 208.825 135.481C208.825 134.821 208.825 134.412 208.825 134.412L200.077 136.551C200.077 136.551 200.171 138.186 200.234 140.137C202.122 140.609 204.262 140.388 206.402 139.13Z" fill="#D19369"/>
<path d="M195.388 115.853C195.388 115.853 193.469 117.237 193.469 118.998C193.469 120.76 192.399 129.788 194.727 133.657C197.056 137.526 201.65 139.382 206.371 136.928C211.091 134.475 213.766 132.084 211.846 123.811C209.927 115.507 201.808 112.424 195.388 115.853Z" fill="#EFAC7F"/>
<path opacity="0.65" d="M193.469 118.967C193.469 119.564 193.343 120.948 193.28 122.71C194.287 122.584 204.923 121.106 206.591 120.382C206.906 122.647 209.108 127.995 213.671 129.379C214.238 127.554 212.633 127.145 211.846 123.748C209.927 115.507 201.776 112.424 195.388 115.821C195.388 115.853 193.469 117.237 193.469 118.967Z" fill="#D19369"/>
<path d="M214.458 115.224C212.759 113.242 210.524 112.235 208.416 111.763C202.878 110.159 198.22 110.82 194.538 114.5C193.217 115.821 191.612 118.275 192.587 121.452H193.217C193.248 121.452 205.175 120.068 206.969 119.344C207.409 121.987 213.231 129.913 213.64 130.637L215.843 117.237C215.497 116.545 215.024 115.884 214.458 115.224Z" fill="#5E2E0D"/>
<path d="M210.462 127.995C210.462 127.995 210.524 124.251 212.507 125.478C214.521 126.705 213.955 131.612 211.72 131.077C209.455 130.511 210.462 127.995 210.462 127.995Z" fill="#EFAC7F"/>
<path d="M208.164 202.357C207.378 200.092 207.535 197.607 209.266 195.908C209.927 195.248 210.808 194.776 211.5 194.304C212.822 193.423 228.556 189.963 231.294 190.875C234.032 191.819 234.598 192.542 235.259 193.864C235.92 195.185 235.479 198.802 235.101 199.935C234.724 201.067 221.444 205.88 214.301 205.376C208.573 204.999 208.353 202.923 208.164 202.357Z" fill="#8D93AB"/>
<path d="M235.133 199.935C235.857 198.928 235.951 195.185 235.29 193.864C234.629 192.542 234.063 191.819 231.325 190.875C229.28 190.183 220.059 191.945 214.899 193.234C212.161 193.926 210.336 196.6 210.839 199.368C210.902 199.651 211.626 202.766 212.224 203.961C212.633 204.779 213.42 205.314 214.332 205.377C221.476 205.911 234.409 200.91 235.133 199.935Z" fill="#8D93AB"/>
<path d="M213.64 197.607C213.64 197.607 217.07 195.468 221.098 194.556C225.157 193.643 232.458 193.989 232.458 193.989C232.458 193.989 222.671 196.883 213.64 197.607Z" fill="#8D93AB"/>
<path d="M232.458 193.989C230.633 194.619 227.864 195.562 224.402 196.286C220.595 197.104 218.297 197.229 215.434 197.512C215.056 197.544 213.64 197.607 213.64 197.607C221.004 196.663 225.976 195.562 232.458 193.989Z" fill="#D1EAF2"/>
<path d="M213.64 197.607C214.71 196.883 216.346 196.003 217.983 195.373C220.343 194.43 222.703 193.832 227.581 193.801C229.217 193.801 230.822 193.832 232.458 193.989C229.028 193.989 223.647 194.021 220.374 194.902C218.014 195.499 215.339 196.663 213.64 197.607Z" fill="#D1EAF2"/>
<path d="M213.168 199.777C212.192 199.777 211.594 199.746 211.563 199.746C211.469 199.746 211.406 199.652 211.406 199.557C211.406 199.463 211.5 199.4 211.594 199.4C211.626 199.4 215.874 199.589 220.783 198.959C225.315 198.393 231.357 197.072 234.504 193.801C234.567 193.738 234.661 193.738 234.724 193.801C234.787 193.864 234.787 193.958 234.724 194.021C233.308 195.499 231.199 196.726 228.462 197.638C226.29 198.362 223.71 198.928 220.783 199.274C217.699 199.714 214.836 199.777 213.168 199.777Z" fill="#8D93AB"/>
<path d="M220.437 203.772C220.374 203.772 220.311 203.741 220.28 203.678L218.675 199.494C218.643 199.4 218.675 199.305 218.769 199.274C218.864 199.243 218.958 199.274 218.99 199.368L220.594 203.552C220.626 203.646 220.594 203.741 220.5 203.772C220.469 203.772 220.469 203.772 220.437 203.772Z" fill="#8D93AB"/>
<path d="M230.853 201.161C230.759 201.161 230.664 201.067 230.696 200.973L231.262 196.286C231.262 196.191 231.357 196.128 231.451 196.128C231.546 196.128 231.608 196.223 231.608 196.317L231.042 201.004C231.011 201.098 230.948 201.161 230.853 201.161Z" fill="#8D93AB"/>
<path d="M233.056 194.21L231.986 194.493C231.955 194.493 231.892 194.493 231.892 194.43L231.766 193.958C231.766 193.926 231.766 193.864 231.829 193.864L232.899 193.58C232.93 193.58 232.993 193.58 232.993 193.643L233.119 194.115C233.087 194.147 233.087 194.178 233.056 194.21Z" fill="#D1EAF2"/>
<path d="M231.955 194.052L231.734 195.468C231.734 195.468 231.734 195.499 231.766 195.499H232.458C232.458 195.499 232.49 195.499 232.49 195.468L232.269 194.052C232.269 194.021 232.238 193.989 232.175 193.989H232.049C231.986 193.989 231.955 193.989 231.955 194.052ZM232.269 195.373H231.923C231.923 195.373 231.892 195.373 231.892 195.342L232.081 194.241C232.081 194.21 232.143 194.21 232.143 194.241L232.332 195.342C232.301 195.342 232.301 195.373 232.269 195.373Z" fill="#D1EAF2"/>
<path d="M232.521 194.052L232.049 194.178C232.018 194.178 231.955 194.178 231.955 194.115V194.084C231.955 194.052 231.955 193.989 232.018 193.989L232.49 193.864C232.521 193.864 232.584 193.864 232.584 193.926V193.958C232.584 193.989 232.553 194.021 232.521 194.052Z" fill="#D1EAF2"/>
<path d="M208.385 201.036C201.052 200.564 197.087 197.45 196.993 197.198C196.773 196.349 197.182 194.021 198.063 193.769C198.126 193.769 202.185 197.984 208.573 198.393L208.385 201.036Z" fill="#8D93AB"/>
<path d="M175.972 167.787C175.972 167.787 177.42 173.26 171.22 172.568C171.22 172.568 167.948 166.528 166.28 165.585C164.612 164.672 159.357 165.616 158.916 164.987C158.476 164.358 156.871 161.778 156.776 160.992C156.682 160.206 157.311 158.979 157.311 158.979C157.311 158.979 157.217 158.035 157.437 157.438C157.657 156.84 158.35 156.399 158.35 156.399C158.35 156.399 158.35 154.009 159.136 153.191C159.955 152.373 161.434 153.128 161.182 154.418C161.025 155.173 161.528 157.091 161.874 157.595C162.22 158.067 162.378 158.538 163.259 158.633C164.171 158.727 166.909 158.916 164.171 157.029C161.434 155.141 160.773 154.952 161.276 153.757C161.78 152.593 167.098 154.795 168.703 157.972C169.552 159.765 175.972 167.787 175.972 167.787Z" fill="#EFAC7F"/>
<path d="M152.213 155.613L153.346 151.241C153.566 150.36 154.353 149.857 155.108 150.14L162.252 152.782C162.976 153.065 163.385 153.977 163.164 154.89L162.032 159.262C161.811 160.143 161.025 160.646 160.269 160.363L153.126 157.721C152.402 157.438 151.993 156.494 152.213 155.613Z" fill="#D6E0F0"/>
<path d="M152.339 155.11L162.157 158.727L162.692 156.651L152.874 153.002L152.339 155.11Z" fill="#393B44"/>
<path d="M161.245 153.757C160.741 154.921 161.402 155.141 164.14 157.029L166.5 155.487C164.36 153.789 161.591 152.908 161.245 153.757Z" fill="#EFAC7F"/>
</g>
<defs>
<clipPath id="clip0_224_542">
<rect width="360" height="229" fill="white"/>
</clipPath>
</defs>
</svg>
